<?xml version="1.0" encoding="UTF-8"?>
<svg version="1.1" xmlns="http://www.w3.org/2000/svg" width="494" height="505">
<path d="M0 0 C24.10373196 -0.02311623 48.20746125 -0.0409778 72.31120205 -0.05181217 C83.5021496 -0.05697572 94.69309015 -0.06401954 105.8840332 -0.07543945 C115.63429378 -0.08538449 125.38454929 -0.091853 135.1348148 -0.09408849 C140.30089098 -0.09539591 145.46695267 -0.09848369 150.63302422 -0.10573006 C155.48956334 -0.11248744 160.3460819 -0.11461754 165.20262527 -0.11310768 C166.99053242 -0.11338414 168.77844021 -0.11539092 170.56634331 -0.11920547 C172.99639799 -0.12413833 175.42637377 -0.12299981 177.85643005 -0.12025452 C178.57334265 -0.12316736 179.29025524 -0.1260802 180.02889246 -0.12908131 C184.88587879 -0.11412121 184.88587879 -0.11412121 186 1 C186 10.9 186 20.8 186 31 C206.13 31 226.26 31 247 31 C247 41.23 247 51.46 247 62 C256.9 62 266.8 62 277 62 C277 71.9 277 81.8 277 92 C287.23 92 297.46 92 308 92 C308 112.46 308 132.92 308 154 C317.9 154 327.8 154 338 154 C338 215.05 338 276.1 338 339 C328.1 339 318.2 339 308 339 C308 348.9 308 358.8 308 369 C297.77 369 287.54 369 277 369 C277 389.13 277 409.26 277 430 C267.1 430 257.2 430 247 430 C247 440.23 247 450.46 247 461 C236.77 461 226.54 461 216 461 C216 470.9 216 480.8 216 491 C134.49 491 52.98 491 -31 491 C-31 481.1 -31 471.2 -31 461 C-40.9 461 -50.8 461 -61 461 C-61 450.77 -61 440.54 -61 430 C-71.23 430 -81.46 430 -92 430 C-92 409.87 -92 389.74 -92 369 C-101.9 369 -111.8 369 -122 369 C-123 368 -123 368 -123.11352539 365.22436523 C-123.10828857 364.01466064 -123.10305176 362.80495605 -123.09765625 361.55859375 C-123.09515869 360.38353271 -123.09266113 359.20847168 -123.09008789 357.99780273 C-123.08098389 356.49290283 -123.07187988 354.98800293 -123.0625 353.4375 C-123.041875 348.673125 -123.02125 343.90875 -123 339 C-132.9 339 -142.8 339 -153 339 C-153 277.95 -153 216.9 -153 154 C-143.1 154 -133.2 154 -123 154 C-123.01160156 149.60816406 -123.02320312 145.21632812 -123.03515625 140.69140625 C-123.04158313 137.1987333 -123.04700738 133.70606202 -123.05175018 130.21338654 C-123.05704002 126.52139609 -123.06411374 122.82942845 -123.07543945 119.13745117 C-123.08627162 115.58429169 -123.09227753 112.03115437 -123.09487724 108.47797966 C-123.0967309 107.11954334 -123.10035038 105.76110829 -123.10573006 104.40268135 C-123.11294475 102.50617777 -123.11340809 100.60965207 -123.11352539 98.71313477 C-123.115746 97.63169693 -123.11796661 96.55025909 -123.12025452 95.43605042 C-123 93 -123 93 -122 92 C-119.78144736 91.91216458 -117.56011504 91.89305391 -115.33984375 91.90234375 C-114.12417725 91.90484131 -112.90851074 91.90733887 -111.65600586 91.90991211 C-110.09889893 91.91901611 -108.54179199 91.92812012 -106.9375 91.9375 C-102.008125 91.958125 -97.07875 91.97875 -92 92 C-92 82.1 -92 72.2 -92 62 C-81.77 62 -71.54 62 -61 62 C-61 51.77 -61 41.54 -61 31 C-40.87 31 -20.74 31 0 31 C0 20.77 0 10.54 0 0 Z " fill="#D20101" transform="translate(155,7)"/>
<path d="M0 0 C24.10373196 -0.02311623 48.20746125 -0.0409778 72.31120205 -0.05181217 C83.5021496 -0.05697572 94.69309015 -0.06401954 105.8840332 -0.07543945 C115.63429378 -0.08538449 125.38454929 -0.091853 135.1348148 -0.09408849 C140.30089098 -0.09539591 145.46695267 -0.09848369 150.63302422 -0.10573006 C155.48956334 -0.11248744 160.3460819 -0.11461754 165.20262527 -0.11310768 C166.99053242 -0.11338414 168.77844021 -0.11539092 170.56634331 -0.11920547 C172.99639799 -0.12413833 175.42637377 -0.12299981 177.85643005 -0.12025452 C178.57334265 -0.12316736 179.29025524 -0.1260802 180.02889246 -0.12908131 C184.88587879 -0.11412121 184.88587879 -0.11412121 186 1 C186 10.9 186 20.8 186 31 C206.13 31 226.26 31 247 31 C247 41.23 247 51.46 247 62 C256.9 62 266.8 62 277 62 C277 71.9 277 81.8 277 92 C287.23 92 297.46 92 308 92 C308 112.46 308 132.92 308 154 C317.9 154 327.8 154 338 154 C338 215.05 338 276.1 338 339 C328.1 339 318.2 339 308 339 C308 348.9 308 358.8 308 369 C297.77 369 287.54 369 277 369 C277 389.13 277 409.26 277 430 C267.1 430 257.2 430 247 430 C247 440.23 247 450.46 247 461 C236.77 461 226.54 461 216 461 C216 470.9 216 480.8 216 491 C134.49 491 52.98 491 -31 491 C-31 481.1 -31 471.2 -31 461 C-40.9 461 -50.8 461 -61 461 C-61 450.77 -61 440.54 -61 430 C-71.23 430 -81.46 430 -92 430 C-92 409.87 -92 389.74 -92 369 C-101.9 369 -111.8 369 -122 369 C-123 368 -123 368 -123.11352539 365.22436523 C-123.10828857 364.01466064 -123.10305176 362.80495605 -123.09765625 361.55859375 C-123.09515869 360.38353271 -123.09266113 359.20847168 -123.09008789 357.99780273 C-123.08098389 356.49290283 -123.07187988 354.98800293 -123.0625 353.4375 C-123.041875 348.673125 -123.02125 343.90875 -123 339 C-132.9 339 -142.8 339 -153 339 C-153 277.95 -153 216.9 -153 154 C-143.1 154 -133.2 154 -123 154 C-123.01160156 149.60816406 -123.02320312 145.21632812 -123.03515625 140.69140625 C-123.04158313 137.1987333 -123.04700738 133.70606202 -123.05175018 130.21338654 C-123.05704002 126.52139609 -123.06411374 122.82942845 -123.07543945 119.13745117 C-123.08627162 115.58429169 -123.09227753 112.03115437 -123.09487724 108.47797966 C-123.0967309 107.11954334 -123.10035038 105.76110829 -123.10573006 104.40268135 C-123.11294475 102.50617777 -123.11340809 100.60965207 -123.11352539 98.71313477 C-123.115746 97.63169693 -123.11796661 96.55025909 -123.12025452 95.43605042 C-123 93 -123 93 -122 92 C-119.78144736 91.91216458 -117.56011504 91.89305391 -115.33984375 91.90234375 C-114.12417725 91.90484131 -112.90851074 91.90733887 -111.65600586 91.90991211 C-110.09889893 91.91901611 -108.54179199 91.92812012 -106.9375 91.9375 C-102.008125 91.958125 -97.07875 91.97875 -92 92 C-92 82.1 -92 72.2 -92 62 C-81.77 62 -71.54 62 -61 62 C-61 51.77 -61 41.54 -61 31 C-40.87 31 -20.74 31 0 31 C0 20.77 0 10.54 0 0 Z M1 32 C1 41.9 1 51.8 1 62 C-5.47947266 61.98259766 -5.47947266 61.98259766 -12.08984375 61.96484375 C-15.52516908 61.95841684 -18.96049271 61.95299261 -22.39582062 61.94824982 C-26.02715757 61.94296004 -29.65847135 61.93588643 -33.28979492 61.92456055 C-36.78459975 61.91372816 -40.27938204 61.90772242 -43.77420235 61.90512276 C-45.76239389 61.90236449 -47.75057631 61.89455312 -49.73875427 61.88670349 C-50.93992386 61.88662796 -52.14109344 61.88655243 -53.37866211 61.88647461 C-54.44233505 61.884254 -55.506008 61.88203339 -56.60191345 61.87974548 C-58.95243414 61.72883237 -58.95243414 61.72883237 -60 63 C-60.08783542 65.21855264 -60.10694609 67.43988496 -60.09765625 69.66015625 C-60.09515869 70.87582275 -60.09266113 72.09148926 -60.09008789 73.34399414 C-60.08098389 74.90110107 -60.07187988 76.45820801 -60.0625 78.0625 C-60.041875 82.991875 -60.02125 87.92125 -60 93 C-70.23 93 -80.46 93 -91 93 C-91 113.13 -91 133.26 -91 154 C-101.23 154 -111.46 154 -122 154 C-122 214.72 -122 275.44 -122 338 C-101.54 338 -81.08 338 -60 338 C-60 327.77 -60 317.54 -60 307 C40.98 307 141.96 307 246 307 C246 316.9 246 326.8 246 337 C246.33 337.33 246.66 337.66 247 338 C266.8 338 286.6 338 307 338 C307 277.28 307 216.56 307 154 C296.77 154 286.54 154 276 154 C276.0625 138.5625 276.0625 138.5625 276.09008789 133.68579102 C276.09258545 132.42951904 276.09508301 131.17324707 276.09765625 129.87890625 C276.10289307 128.5854126 276.10812988 127.29191895 276.11352539 125.95922852 C276.33996932 123.11347596 276.33996932 123.11347596 275 122 C274.98318911 119.852551 275.03748777 117.70448048 275.12109375 115.55859375 C275.18574829 113.7960022 275.18574829 113.7960022 275.25170898 111.99780273 C275.31302002 110.49290283 275.37433105 108.98800293 275.4375 107.4375 C275.623125 102.673125 275.80875 97.90875 276 93 C266.1 93 256.2 93 246 93 C246 72.87 246 52.74 246 32 C205.74 32 165.48 32 124 32 C124 51.8 124 71.6 124 92 C123.01 92.495 123.01 92.495 122 93 C122.00222061 92.26306412 122.00444122 91.52612823 122.00672913 90.76686096 C122.02673203 83.83587231 122.04197413 76.90488796 122.05181217 69.97387791 C122.05703995 66.41022578 122.06413569 62.84659743 122.07543945 59.28295898 C122.08834176 55.18993903 122.09322906 51.0969442 122.09765625 47.00390625 C122.10281754 45.71851456 122.10797882 44.43312286 122.11329651 43.10877991 C122.11337204 41.92763107 122.11344757 40.74648224 122.11352539 39.52954102 C122.115746 38.48363297 122.11796661 37.43772491 122.12025452 36.36012268 C122.26650985 34.04310705 122.26650985 34.04310705 121 33 C119.22008076 32.90629376 117.43643261 32.88255729 115.65405273 32.88647461 C114.49691772 32.88659546 113.33978271 32.88671631 112.14758301 32.88684082 C110.30915833 32.89451477 110.30915833 32.89451477 108.43359375 32.90234375 C107.31408325 32.90335083 106.19457275 32.90435791 105.0411377 32.90539551 C100.83991478 32.9106465 96.63870641 32.92460761 92.4375 32.9375 C83.053125 32.958125 73.66875 32.97875 64 33 C64 52.8 64 72.6 64 93 C63.34 93 62.68 93 62 93 C62 72.87 62 52.74 62 32 C41.87 32 21.74 32 1 32 Z " fill="#020101" transform="translate(155,7)"/>
<path d="M0 0 C20.13 0 40.26 0 61 0 C61 20.13 61 40.26 61 61 C71.23 61 81.46 61 92 61 C92 40.87 92 20.74 92 0 C112.46 0 132.92 0 154 0 C154 20.13 154 40.26 154 61 C163.9 61 173.8 61 184 61 C184 40.87 184 20.74 184 0 C204.13 0 224.26 0 245 0 C245 9.9 245 19.8 245 30 C255.23 30 265.46 30 276 30 C276 50.13 276 70.26 276 91 C265.77 91 255.54 91 245 91 C245 101.23 245 111.46 245 122 C164.15 122 83.3 122 0 122 C0 112.1 0 102.2 0 92 C-20.46 92 -40.92 92 -62 92 C-62 71.87 -62 51.74 -62 31 C-71.9 31 -81.8 31 -92 31 C-92 30.67 -92 30.34 -92 30 C-81.77 30 -71.54 30 -61 30 C-61 50.13 -61 70.26 -61 91 C-51.1 91 -41.2 91 -31 91 C-31 70.87 -31 50.74 -31 30 C-20.77 30 -10.54 30 0 30 C0 20.1 0 10.2 0 0 Z " fill="#FCFCFC" transform="translate(125,345)"/>
<path d="M0 0 C40.59 0 81.18 0 123 0 C123 10.23 123 20.46 123 31 C133.23 31 143.46 31 154 31 C154 51.13 154 71.26 154 92 C143.77 92 133.54 92 123 92 C123 102.23 123 112.46 123 123 C113.1 123 103.2 123 93 123 C93 132.9 93 142.8 93 153 C72.54 153 52.08 153 31 153 C31 143.1 31 133.2 31 123 C20.77 123 10.54 123 0 123 C0 112.77 0 102.54 0 92 C-9.9 92 -19.8 92 -30 92 C-30 71.87 -30 51.74 -30 31 C-20.1 31 -10.2 31 0 31 C0 20.77 0 10.54 0 0 Z " fill="#FDFCFC" transform="translate(186,161)"/>
<path d="M0 0 C24.10373196 -0.02311623 48.20746125 -0.0409778 72.31120205 -0.05181217 C83.5021496 -0.05697572 94.69309015 -0.06401954 105.8840332 -0.07543945 C115.63429378 -0.08538449 125.38454929 -0.091853 135.1348148 -0.09408849 C140.30089098 -0.09539591 145.46695267 -0.09848369 150.63302422 -0.10573006 C155.48956334 -0.11248744 160.3460819 -0.11461754 165.20262527 -0.11310768 C166.99053242 -0.11338414 168.77844021 -0.11539092 170.56634331 -0.11920547 C172.99639799 -0.12413833 175.42637377 -0.12299981 177.85643005 -0.12025452 C178.57334265 -0.12316736 179.29025524 -0.1260802 180.02889246 -0.12908131 C184.88587879 -0.11412121 184.88587879 -0.11412121 186 1 C186 10.9 186 20.8 186 31 C206.13 31 226.26 31 247 31 C247 41.23 247 51.46 247 62 C256.9 62 266.8 62 277 62 C277 71.9 277 81.8 277 92 C287.23 92 297.46 92 308 92 C308 153.05 308 214.1 308 277 C307.67 277 307.34 277 307 277 C307 236.41 307 195.82 307 154 C296.77 154 286.54 154 276 154 C276 143.77 276 133.54 276 123 C266.43 123 256.86 123 247 123 C247 122.67 247 122.34 247 122 C256.24 122 265.48 122 275 122 C274.9604392 113.20431495 274.9604392 113.20431495 274.90991211 104.40869141 C274.90616577 102.7716626 274.90616577 102.7716626 274.90234375 101.1015625 C274.89448853 99.42054443 274.89448853 99.42054443 274.88647461 97.70556641 C275 95 275 95 276 93 C266.1 93 256.2 93 246 93 C246 72.87 246 52.74 246 32 C225.87 32 205.74 32 185 32 C185 41.9 185 51.8 185 62 C184.67 62 184.34 62 184 62 C184 52.1 184 42.2 184 32 C164.2 32 144.4 32 124 32 C124 51.8 124 71.6 124 92 C133.9 92 143.8 92 154 92 C154 92.33 154 92.66 154 93 C143.44 93 132.88 93 122 93 C121.67 73.53 121.34 54.06 121 34 C102.19 33.67 83.38 33.34 64 33 C64 52.8 64 72.6 64 93 C63.34 93 62.68 93 62 93 C62 72.87 62 52.74 62 32 C41.87 32 21.74 32 1 32 C1 41.9 1 51.8 1 62 C-18.8 62.33 -38.6 62.66 -59 63 C-59.33 72.9 -59.66 82.8 -60 93 C-70.23 93 -80.46 93 -91 93 C-91 113.13 -91 133.26 -91 154 C-101.23 154 -111.46 154 -122 154 C-122 224.62 -122 295.24 -122 368 C-122.33 368 -122.66 368 -123 368 C-123 358.43 -123 348.86 -123 339 C-132.9 339 -142.8 339 -153 339 C-153 277.95 -153 216.9 -153 154 C-143.1 154 -133.2 154 -123 154 C-123.01160156 149.60816406 -123.02320312 145.21632812 -123.03515625 140.69140625 C-123.04158313 137.1987333 -123.04700738 133.70606202 -123.05175018 130.21338654 C-123.05704002 126.52139609 -123.06411374 122.82942845 -123.07543945 119.13745117 C-123.08627162 115.58429169 -123.09227753 112.03115437 -123.09487724 108.47797966 C-123.0967309 107.11954334 -123.10035038 105.76110829 -123.10573006 104.40268135 C-123.11294475 102.50617777 -123.11340809 100.60965207 -123.11352539 98.71313477 C-123.115746 97.63169693 -123.11796661 96.55025909 -123.12025452 95.43605042 C-123 93 -123 93 -122 92 C-119.78144736 91.91216458 -117.56011504 91.89305391 -115.33984375 91.90234375 C-114.12417725 91.90484131 -112.90851074 91.90733887 -111.65600586 91.90991211 C-110.09889893 91.91901611 -108.54179199 91.92812012 -106.9375 91.9375 C-102.008125 91.958125 -97.07875 91.97875 -92 92 C-92 82.1 -92 72.2 -92 62 C-81.77 62 -71.54 62 -61 62 C-61 51.77 -61 41.54 -61 31 C-40.87 31 -20.74 31 0 31 C0 20.77 0 10.54 0 0 Z " fill="#010000" transform="translate(155,7)"/>
<path d="M0 0 C10.23 0 20.46 0 31 0 C31 10.23 31 20.46 31 31 C40.9 31 50.8 31 61 31 C61 71.59 61 112.18 61 154 C30.64 154 0.28 154 -31 154 C-31 113.41 -31 72.82 -31 31 C-20.77 31 -10.54 31 0 31 C0 20.77 0 10.54 0 0 Z " fill="#FEFEFE" transform="translate(64,130)"/>
<path d="M0 0 C9.9 0 19.8 0 30 0 C30 10.23 30 20.46 30 31 C40.23 31 50.46 31 61 31 C61 71.59 61 112.18 61 154 C30.64 154 0.28 154 -31 154 C-31 113.41 -31 72.82 -31 31 C-20.77 31 -10.54 31 0 31 C0 20.77 0 10.54 0 0 Z " fill="#FDFBFB" transform="translate(401,130)"/>
<path d="M0 0 C20.13 0 40.26 0 61 0 C61 20.13 61 40.26 61 61 C50.77 61 40.54 61 30 61 C30 71.23 30 81.46 30 92 C9.87 92 -10.26 92 -31 92 C-31 71.54 -31 51.08 -31 30 C-20.77 30 -10.54 30 0 30 C0 20.1 0 10.2 0 0 Z " fill="#FDFBFB" transform="translate(156,39)"/>
<path d="M0 0 C19.8 0 39.6 0 60 0 C60 9.9 60 19.8 60 30 C70.23 30 80.46 30 91 30 C91 50.46 91 70.92 91 92 C70.87 92 50.74 92 30 92 C30 81.44 30 70.88 30 60 C20.1 60 10.2 60 0 60 C0 40.2 0 20.4 0 0 Z " fill="#FEFCFB" transform="translate(279,39)"/>
<path d="M0 0 C60.72 0 121.44 0 184 0 C184 9.9 184 19.8 184 30 C123.28 30 62.56 30 0 30 C0 20.1 0 10.2 0 0 Z " fill="#000000" transform="translate(156,8)"/>
<path d="M0 0 C9.57 0 19.14 0 29 0 C29.17115192 18.87496165 29.33811721 37.74995675 29.5 56.625 C29.50594854 57.31784639 29.51189708 58.01069278 29.51802588 58.72453451 C29.87333805 100.15033877 30.1564619 141.57236507 30 183 C20.1 183 10.2 183 0 183 C0 122.61 0 62.22 0 0 Z " fill="#000000" transform="translate(3,162)"/>
<path d="M0 0 C24.10373196 -0.02311623 48.20746125 -0.0409778 72.31120205 -0.05181217 C83.5021496 -0.05697572 94.69309015 -0.06401954 105.8840332 -0.07543945 C115.63429378 -0.08538449 125.38454929 -0.091853 135.1348148 -0.09408849 C140.30089098 -0.09539591 145.46695267 -0.09848369 150.63302422 -0.10573006 C155.48956334 -0.11248744 160.3460819 -0.11461754 165.20262527 -0.11310768 C166.99053242 -0.11338414 168.77844021 -0.11539092 170.56634331 -0.11920547 C172.99639799 -0.12413833 175.42637377 -0.12299981 177.85643005 -0.12025452 C178.57334265 -0.12316736 179.29025524 -0.1260802 180.02889246 -0.12908131 C184.88587879 -0.11412121 184.88587879 -0.11412121 186 1 C186 10.9 186 20.8 186 31 C206.13 31 226.26 31 247 31 C247 41.23 247 51.46 247 62 C256.9 62 266.8 62 277 62 C277 71.9 277 81.8 277 92 C287.23 92 297.46 92 308 92 C308 153.05 308 214.1 308 277 C307.67 277 307.34 277 307 277 C307 236.41 307 195.82 307 154 C296.77 154 286.54 154 276 154 C276 143.77 276 133.54 276 123 C266.43 123 256.86 123 247 123 C247 122.67 247 122.34 247 122 C256.24 122 265.48 122 275 122 C274.9604392 113.20431495 274.9604392 113.20431495 274.90991211 104.40869141 C274.90616577 102.7716626 274.90616577 102.7716626 274.90234375 101.1015625 C274.89448853 99.42054443 274.89448853 99.42054443 274.88647461 97.70556641 C275 95 275 95 276 93 C266.1 93 256.2 93 246 93 C246 72.87 246 52.74 246 32 C225.87 32 205.74 32 185 32 C185 41.9 185 51.8 185 62 C184.67 62 184.34 62 184 62 C184 52.1 184 42.2 184 32 C164.2 32 144.4 32 124 32 C124 51.8 124 71.6 124 92 C133.9 92 143.8 92 154 92 C154 92.33 154 92.66 154 93 C143.44 93 132.88 93 122 93 C121.67 73.53 121.34 54.06 121 34 C102.19 33.67 83.38 33.34 64 33 C64 52.8 64 72.6 64 93 C63.34 93 62.68 93 62 93 C62 72.87 62 52.74 62 32 C21.74 32 -18.52 32 -60 32 C-60 38.27 -60 44.54 -60 51 C-60.33 51 -60.66 51 -61 51 C-61 44.4 -61 37.8 -61 31 C-40.87 31 -20.74 31 0 31 C0 20.77 0 10.54 0 0 Z M1 1 C1 10.9 1 20.8 1 31 C61.72 31 122.44 31 185 31 C185 21.1 185 11.2 185 1 C124.28 1 63.56 1 1 1 Z " fill="#A87070" transform="translate(155,7)"/>
<path d="M0 0 C0.33 0 0.66 0 1 0 C1 61.05 1 122.1 1 185 C-8.9 185 -18.8 185 -29 185 C-29 194.9 -29 204.8 -29 215 C-39.23 215 -49.46 215 -60 215 C-60 235.13 -60 255.26 -60 276 C-69.9 276 -79.8 276 -90 276 C-90 286.23 -90 296.46 -90 307 C-100.23 307 -110.46 307 -121 307 C-121 316.9 -121 326.8 -121 337 C-121.33 337 -121.66 337 -122 337 C-122 327.1 -122 317.2 -122 307 C-202.85 307 -283.7 307 -367 307 C-367 316.9 -367 326.8 -367 337 C-367.33 337 -367.66 337 -368 337 C-368 327.1 -368 317.2 -368 307 C-377.9 307 -387.8 307 -398 307 C-398 296.77 -398 286.54 -398 276 C-387.77 276 -377.54 276 -367 276 C-367 285.9 -367 295.8 -367 306 C-286.15 306 -205.3 306 -122 306 C-122 295.77 -122 285.54 -122 275 C-101.87 275 -81.74 275 -61 275 C-61 254.87 -61 234.74 -61 214 C-50.77 214 -40.54 214 -30 214 C-30 204.1 -30 194.2 -30 184 C-20.1 184 -10.2 184 0 184 C0 123.28 0 62.56 0 0 Z " fill="#393939" transform="translate(492,161)"/>
<path d="M0 0 C10.56 0 21.12 0 32 0 C32 20.13 32 40.26 32 61 C21.77 61 11.54 61 1 61 C1 101.26 1 141.52 1 183 C0.67 183 0.34 183 0 183 C0 143.07 0 103.14 0 62 C-9.57 62 -19.14 62 -29 62 C-29 122.39 -29 182.78 -29 245 C-19.1 245 -9.2 245 1 245 C1 254.9 1 264.8 1 275 C0.67 275 0.34 275 0 275 C0 265.43 0 255.86 0 246 C-9.9 246 -19.8 246 -30 246 C-30 184.95 -30 123.9 -30 61 C-20.1 61 -10.2 61 0 61 C0 40.87 0 20.74 0 0 Z " fill="#191818" transform="translate(32,100)"/>
<path d="M0 0 C9.9 0 19.8 0 30 0 C30 20.13 30 40.26 30 61 C20.1 61 10.2 61 0 61 C0 40.87 0 20.74 0 0 Z " fill="#000000" transform="translate(432,100)"/>
<path d="M0 0 C20.13 0 40.26 0 61 0 C61 9.9 61 19.8 61 30 C40.87 30 20.74 30 0 30 C0 20.1 0 10.2 0 0 Z " fill="#010000" transform="translate(340,39)"/>
<path d="M0 0 C0.33 0 0.66 0 1 0 C1.495 3.96 1.495 3.96 2 8 C7.28 8.33 12.56 8.66 18 9 C18 9.33 18 9.66 18 10 C10.08 10.495 10.08 10.495 2 11 C1.67 21.23 1.34 31.46 1 42 C-19.46 42 -39.92 42 -61 42 C-61 41.67 -61 41.34 -61 41 C-51.1 41 -41.2 41 -31 41 C-31 31.1 -31 21.2 -31 11 C-20.77 11 -10.54 11 0 11 C0 7.37 0 3.74 0 0 Z " fill="#10090A" transform="translate(94,58)"/>
<path d="M0 0 C10.23 0 20.46 0 31 0 C31 9.9 31 19.8 31 30 C20.77 30 10.54 30 0 30 C0 20.1 0 10.2 0 0 Z " fill="#020202" transform="translate(370,437)"/>
<path d="M0 0 C9.57 0 19.14 0 29 0 C29 9.9 29 19.8 29 30 C19.43 30 9.86 30 0 30 C0 20.1 0 10.2 0 0 Z " fill="#020101" transform="translate(402,69)"/>
<path d="M0 0 C0.33 0 0.66 0 1 0 C1 39.93 1 79.86 1 121 C3.97 120.505 3.97 120.505 7 120 C9.77788179 119.94097042 12.52471149 119.93064944 15.30029297 119.97827148 C16.11071548 119.98787903 16.921138 119.99748657 17.75611877 120.00738525 C20.41823494 120.04020226 23.08017799 120.0805997 25.7421875 120.12109375 C27.5944865 120.1454118 29.4467918 120.1692545 31.29910278 120.19264221 C36.16201987 120.2553155 41.02482474 120.32442919 45.88763428 120.39489746 C50.85472527 120.46573267 55.82189548 120.5304586 60.7890625 120.59570312 C70.52612875 120.72449934 80.26308737 120.86010156 90 121 C89.99907821 120.3997787 89.99815641 119.7995574 89.99720669 119.18114758 C89.97513361 104.58434211 89.95857972 89.98753763 89.94818783 75.39071941 C89.94302897 68.33184396 89.93599405 61.27297964 89.92456055 54.21411133 C89.91353853 47.40604865 89.90772086 40.59799756 89.90512276 33.78992653 C89.90327046 31.18832021 89.89965358 28.58671455 89.89426994 25.98511314 C89.88704525 22.35033151 89.88600967 18.71559817 89.88647461 15.08081055 C89.88287933 13.99755997 89.87928406 12.91430939 89.87557983 11.79823303 C89.8769545 10.80965302 89.87832916 9.821073 89.87974548 8.80253601 C89.87882369 7.94250316 89.8779019 7.0824703 89.87695217 6.19637585 C90 4 90 4 91 1 C81.43 1 71.86 1 62 1 C62 0.67 62 0.34 62 0 C71.9 0 81.8 0 92 0 C92 40.59 92 81.18 92 123 C61.64 123 31.28 123 0 123 C0 82.41 0 41.82 0 0 Z " fill="#ECCFCF" transform="translate(33,161)"/>
<path d="M0 0 C0.33 0 0.66 0 1 0 C1 9.9 1 19.8 1 30 C10.57 30 20.14 30 30 30 C30 20.1 30 10.2 30 0 C30.33 0 30.66 0 31 0 C31 9.9 31 19.8 31 30 C41.23 30 51.46 30 62 30 C62 91.05 62 152.1 62 215 C61.67 215 61.34 215 61 215 C61 154.28 61 93.56 61 31 C51.1 31 41.2 31 31 31 C31 51.13 31 71.26 31 92 C30.67 92 30.34 92 30 92 C30 81.77 30 71.54 30 61 C20.43 61 10.86 61 1 61 C1 60.67 1 60.34 1 60 C10.24 60 19.48 60 29 60 C28.9604392 51.20431495 28.9604392 51.20431495 28.90991211 42.40869141 C28.90741455 41.31733887 28.90491699 40.22598633 28.90234375 39.1015625 C28.89448853 37.42054443 28.89448853 37.42054443 28.88647461 35.70556641 C29 33 29 33 30 31 C20.1 31 10.2 31 0 31 C0 20.77 0 10.54 0 0 Z " fill="#704949" transform="translate(401,69)"/>
<path d="M0 0 C30.36 0 60.72 0 92 0 C92 0.33 92 0.66 92 1 C62.3 1 32.6 1 2 1 C2 20.14 2 39.28 2 59 C21.14 59 40.28 59 60 59 C60 49.76 60 40.52 60 31 C60.66 30.67 61.32 30.34 62 30 C62 40.23 62 50.46 62 61 C41.54 61 21.08 61 0 61 C0 40.87 0 20.74 0 0 Z " fill="#A20C0C" transform="translate(33,284)"/>
<path d="M0 0 C30.36 0 60.72 0 92 0 C92 20.13 92 40.26 92 61 C82.120625 61.020625 72.24125 61.04125 62.0625 61.0625 C57.37752319 61.07615601 57.37752319 61.07615601 52.59790039 61.09008789 C50.13948612 61.09300678 47.68107136 61.0955554 45.22265625 61.09765625 C43.9322644 61.10277222 42.64187256 61.10788818 41.31237793 61.11315918 C39.48531311 61.11334045 39.48531311 61.11334045 37.62133789 61.11352539 C36.02582848 61.11685631 36.02582848 61.11685631 34.39808655 61.12025452 C32 61 32 61 31 60 C30.91216458 57.78144736 30.89305391 55.56011504 30.90234375 53.33984375 C30.9037587 52.67537735 30.90517365 52.01091095 30.90663147 51.3263092 C30.91224482 49.19666101 30.92479946 47.06711661 30.9375 44.9375 C30.94251329 43.49674631 30.94707649 42.05599097 30.95117188 40.61523438 C30.96221855 37.07678898 30.97949208 33.53840461 31 30 C37.8516016 36.8516016 33 49.3103721 33 59 C52.14 59 71.28 59 91 59 C91 39.86 91 20.72 91 1 C60.97 1 30.94 1 0 1 C0 0.67 0 0.34 0 0 Z " fill="#B70D0E" transform="translate(370,284)"/>
<path d="M0 0 C36.63 0 73.26 0 111 0 C111 0.33 111 0.66 111 1 C74.7 1 38.4 1 1 1 C1 8.59 1 16.18 1 24 C0.67 26.31 0.34 28.62 0 31 C-2.6114819 32.30574095 -4.59505627 32.1679703 -7.51953125 32.22119141 C-8.67412842 32.24436432 -9.82872559 32.26753723 -11.01831055 32.29141235 C-12.89643433 32.32118668 -12.89643433 32.32118668 -14.8125 32.3515625 C-16.73219604 32.38629166 -16.73219604 32.38629166 -18.69067383 32.42172241 C-21.40083555 32.47018506 -24.11102751 32.51511512 -26.82128906 32.55761719 C-30.29853213 32.61245463 -33.77554162 32.6762864 -37.25257874 32.74279213 C-40.56413929 32.80485296 -43.87581391 32.85910227 -47.1875 32.9140625 C-49.06562378 32.94990952 -49.06562378 32.94990952 -50.98168945 32.98648071 C-52.13628662 33.0033493 -53.29088379 33.0202179 -54.48046875 33.03759766 C-56.01030396 33.06305161 -56.01030396 33.06305161 -57.57104492 33.08901978 C-60 33 -60 33 -62 32 C-62.33 32.66 -62.66 33.32 -63 34 C-63 32.68 -63 31.36 -63 30 C-42.54 30 -22.08 30 -1 30 C-1 20.76 -1 11.52 -1 2 C-0.67 1.34 -0.34 0.68 0 0 Z " fill="#0D0000" transform="translate(96,315)"/>
<path d="M0 0 C9.57 0 19.14 0 29 0 C29 20.46 29 40.92 29 62 C49.13 62 69.26 62 90 62 C90 62.33 90 62.66 90 63 C69.54 63 49.08 63 28 63 C26.67046208 60.34092416 26.88013969 58.33434632 26.88647461 55.35693359 C26.88655014 54.17586029 26.88662567 52.99478699 26.88670349 51.77792358 C26.89186478 50.49769318 26.89702606 49.21746277 26.90234375 47.8984375 C26.9037587 46.59170074 26.90517365 45.28496399 26.90663147 43.93862915 C26.91045106 40.46323742 26.92027658 36.98788743 26.93133545 33.51251221 C26.94156157 29.96668065 26.94618642 26.42084216 26.95117188 22.875 C26.96136878 15.91662979 26.98094176 8.95837423 27 2 C18.09 2 9.18 2 0 2 C0 11.57 0 21.14 0 31 C-0.33 31 -0.66 31 -1 31 C-1.02465622 26.74585377 -1.04283899 22.49174502 -1.05493164 18.23754883 C-1.05997101 16.78929927 -1.06680253 15.34105483 -1.07543945 13.89282227 C-1.08752247 11.81525412 -1.09323211 9.73775303 -1.09765625 7.66015625 C-1.10289307 6.40855713 -1.10812988 5.15695801 -1.11352539 3.86743164 C-1 1 -1 1 0 0 Z " fill="#AF1211" transform="translate(96,69)"/>
<path d="M0 0 C2 2 2 2 2.22705078 4.61376953 C2.21657715 5.69255371 2.20610352 6.77133789 2.1953125 7.8828125 C2.18886719 9.04941406 2.18242187 10.21601563 2.17578125 11.41796875 C2.15902344 12.64128906 2.14226562 13.86460937 2.125 15.125 C2.11597656 16.35605469 2.10695313 17.58710938 2.09765625 18.85546875 C2.07402548 21.90383815 2.04108054 24.95182382 2 28 C2.99 27.67 3.98 27.34 5 27 C8.25427617 26.9157581 11.50006315 27.14206509 14.75 27.3125 C15.63171875 27.34794922 16.5134375 27.38339844 17.421875 27.41992188 C18.288125 27.46310547 19.154375 27.50628906 20.046875 27.55078125 C20.82901367 27.58856689 21.61115234 27.62635254 22.41699219 27.6652832 C25.67750181 28.08779348 28.83872948 29.09677985 32 30 C32 50.46 32 70.92 32 92 C31.67 92 31.34 92 31 92 C31 71.87 31 51.74 31 31 C20.77 31 10.54 31 0 31 C0 20.77 0 10.54 0 0 Z " fill="#C31A1A" transform="translate(309,161)"/>
<path d="M0 0 C9.9 0 19.8 0 30 0 C30 0.33 30 0.66 30 1 C20.43 1 10.86 1 1 1 C1.33 19.81 1.66 38.62 2 58 C15.86 58.495 15.86 58.495 30 59 C30 59.66 30 60.32 30 61 C20.1 61 10.2 61 0 61 C0 40.87 0 20.74 0 0 Z " fill="#FFE6E7" transform="translate(156,192)"/>
<path d="M0 0 C10.23 0 20.46 0 31 0 C31 10.23 31 20.46 31 31 C30.34 31 29.68 31 29 31 C29 21.43 29 11.86 29 2 C19.76 2 10.52 2 1 2 C1 11.57 1 21.14 1 31 C0.67 31 0.34 31 0 31 C0 20.77 0 10.54 0 0 Z " fill="#F0C0C0" transform="translate(64,130)"/>
<path d="M0 0 C2 2 2 2 2.22705078 4.70556641 C2.21657715 5.82624512 2.20610352 6.94692383 2.1953125 8.1015625 C2.18886719 9.31328125 2.18242187 10.525 2.17578125 11.7734375 C2.15902344 13.04445313 2.14226562 14.31546875 2.125 15.625 C2.11597656 16.90375 2.10695313 18.1825 2.09765625 19.5 C2.07402303 22.66685167 2.04107629 25.83333424 2 29 C2.86890869 28.99214478 2.86890869 28.99214478 3.75537109 28.98413086 C22.85629108 28.83782752 41.91255761 29.35685291 61 30 C61 30.33 61 30.66 61 31 C53.19424805 31.02312792 45.38850405 31.04091738 37.58272648 31.05181217 C33.9585404 31.05704002 30.3343777 31.06413587 26.71020508 31.07543945 C23.21540025 31.08627184 19.72061796 31.09227758 16.22579765 31.09487724 C14.23760611 31.09763551 12.24942369 31.10544688 10.26124573 31.11329651 C9.06007614 31.11337204 7.85890656 31.11344757 6.62133789 31.11352539 C5.02582848 31.11685631 5.02582848 31.11685631 3.39808655 31.12025452 C1 31 1 31 0 30 C-0.08783542 27.78144736 -0.10694609 25.56011504 -0.09765625 23.33984375 C-0.0962413 22.67537735 -0.09482635 22.01091095 -0.09336853 21.3263092 C-0.08775518 19.19666101 -0.07520054 17.06711661 -0.0625 14.9375 C-0.05748671 13.49674631 -0.05292351 12.05599097 -0.04882812 10.61523438 C-0.03778145 7.07678898 -0.02050792 3.53840461 0 0 Z " fill="#9C0D0C" transform="translate(401,314)"/>
<path d="M0 0 C20.13 0 40.26 0 61 0 C61 0.66 61 1.32 61 2 C53.47239374 2.15373066 45.94469574 2.30191222 38.41684151 2.4429636 C34.92155085 2.5086312 31.42631943 2.57622684 27.93115234 2.64819336 C23.91513481 2.73080053 19.89900121 2.80508516 15.8828125 2.87890625 C13.99527756 2.91945885 13.99527756 2.91945885 12.0696106 2.96083069 C10.90855804 2.98092697 9.74750549 3.00102325 8.55126953 3.02172852 C7.01238571 3.05170677 7.01238571 3.05170677 5.44241333 3.08229065 C3 3 3 3 1 2 C0.67 2.66 0.34 3.32 0 4 C0 2.68 0 1.36 0 0 Z " fill="#220000" transform="translate(33,345)"/>
<path d="M0 0 C9.9 0 19.8 0 30 0 C30 10.23 30 20.46 30 31 C29.34 31 28.68 31 28 31 C28 21.43 28 11.86 28 2 C18.76 2 9.52 2 0 2 C0 1.34 0 0.68 0 0 Z " fill="#A40C0B" transform="translate(371,69)"/>
<path d="M0 0 C0.33 0 0.66 0 1 0 C1 9.24 1 18.48 1 28 C10.57 28.33 20.14 28.66 30 29 C30.33 29.66 30.66 30.32 31 31 C20.77 31 10.54 31 0 31 C0 20.77 0 10.54 0 0 Z " fill="#F8C7C5" transform="translate(186,253)"/>
</svg>
