<svg id="visual" viewBox="0 0 900 600" width="900" height="600" xmlns="http://www.w3.org/2000/svg" xmlns:xlink="http://www.w3.org/1999/xlink" version="1.1"><rect x="0" y="0" width="900" height="600" fill="#001220"></rect><defs><linearGradient id="grad1_0" x1="33.3%" y1="0%" x2="100%" y2="100%"><stop offset="20%" stop-color="#001220" stop-opacity="1"></stop><stop offset="80%" stop-color="#001220" stop-opacity="1"></stop></linearGradient></defs><defs><linearGradient id="grad2_0" x1="0%" y1="0%" x2="66.7%" y2="100%"><stop offset="20%" stop-color="#001220" stop-opacity="1"></stop><stop offset="80%" stop-color="#001220" stop-opacity="1"></stop></linearGradient></defs><g transform="translate(900, 0)"><path d="M0 486.7C-73.5 489.2 -147 491.6 -186.3 449.7C-225.5 407.8 -230.6 321.5 -275.8 275.8C-320.9 230 -406.2 224.8 -448.1 185.6C-489.9 146.4 -488.3 73.2 -486.7 0L0 0Z" fill="#FBAE3C"></path></g><g transform="translate(0, 600)"><path d="M0 -486.7C47.6 -445.3 95.1 -403.9 160.7 -388C226.3 -372.1 309.9 -381.7 344.2 -344.2C378.4 -306.7 363.3 -222.1 378.8 -156.9C394.3 -91.7 440.5 -45.8 486.7 0L0 0Z" fill="#FBAE3C"></path></g></svg>